{"asset":{"version":"2.0","generator":"Blockbench 4.12.6 glTF exporter"},"scenes":[{"nodes":[41],"name":"blockbench_export"}],"scene":0,"nodes":[{"translation":[0,-0.625,0],"name":"asi_r"},{"translation":[0,-0.375,0],"name":"leg_rr","children":[0]},{"translation":[0.25,1.0625,-0.125],"name":"leg_r","children":[1]},{"translation":[0,-0.625,0],"name":"asi_l"},{"translation":[0,-0.375,0],"name":"leg_ll","children":[3]},{"translation":[-0.25,1.0625,-0.125],"name":"leg_l","children":[4]},{"translation":[0,-0.1875,-0.25],"name":"mouth"},{"translation":[0,0,-0.375],"name":"head2"},{"translation":[0,0.671875,-0.484375],"name":"head","children":[6,7]},{"translation":[0.09375,-0.03125,-0.125],"name":"y1"},{"translation":[0.1875,0,0],"name":"y2_2"},{"translation":[0.1875,-0.03125,-0.04999999999999999],"name":"y2","children":[10]},{"translation":[0.1875,0,0],"name":"y3_3"},{"translation":[0.1875,-0.03125,0.03125],"name":"y3","children":[12]},{"translation":[0.1875,0,0],"name":"y4_4"},{"translation":[0.1875,-0.03125,0.10625000000000001],"name":"y4","children":[14]},{"translation":[0.125,0,0],"name":"y5_5"},{"translation":[0.1875,-0.03125,0.16875],"name":"y5","children":[16]},{"translation":[0.375,0,0],"name":"hand_r","children":[9,11,13,15,17]},{"translation":[0.375,0,0],"name":"arm_rr","children":[18]},{"translation":[0.5,0.3125,-0.25],"name":"arm_r","children":[19]},{"translation":[-0.09375,-0.03125,-0.125],"name":"y6"},{"translation":[-0.1875,0,0],"name":"y2_3"},{"translation":[-0.1875,-0.03125,-0.04999999999999999],"name":"y7","children":[22]},{"translation":[-0.1875,0,0],"name":"y3_2"},{"translation":[-0.1875,-0.03125,0.03125],"name":"y8","children":[24]},{"translation":[-0.1875,0,0],"name":"y4_2"},{"translation":[-0.1875,-0.03125,0.10625000000000001],"name":"y9","children":[26]},{"translation":[-0.125,0,0],"name":"y5_2"},{"translation":[-0.1875,-0.03125,0.16875],"name":"y10","children":[28]},{"translation":[-0.375,0,0],"name":"hand_l","children":[21,23,25,27,29]},{"translation":[-0.375,0,0],"name":"arm_ll","children":[30]},{"translation":[-0.375,0,0],"name":"arm_rr2"},{"translation":[-0.5,0.3125,-0.25],"name":"arm_l","children":[31,32]},{"translation":[0,0.375,0],"name":"body3","children":[8,20,33]},{"translation":[0,0.40625,0],"name":"body2","children":[34]},{"translation":[0,0,0.3125],"name":"spline3"},{"translation":[0,0,0.3125],"name":"spline2","children":[36]},{"translation":[0,0.0625,0.3125],"name":"spline","children":[37]},{"translation":[0,1.0625,0],"name":"body","children":[35,38]},{"name":"root","children":[2,5,39]},{"name":"root","mesh":0,"children":[40],"skin":0}],"bufferViews":[{"buffer":0,"byteOffset":0,"byteLength":34272,"target":34962,"byteStride":12},{"buffer":0,"byteOffset":34272,"byteLength":34272,"target":34962,"byteStride":12},{"buffer":0,"byteOffset":68544,"byteLength":22848,"target":34962,"byteStride":8},{"buffer":0,"byteOffset":91392,"byteLength":22848,"target":34962,"byteStride":8},{"buffer":0,"byteOffset":114240,"byteLength":45696,"target":34962,"byteStride":16},{"buffer":0,"byteOffset":159936,"byteLength":8568,"target":34963},{"buffer":0,"byteOffset":168504,"byteLength":2624}],"buffers":[{"byteLength":171128,"uri":"data:application/octet-stream;base64,"}],"accessors":[{"bufferView":0,"componentType":5126,"count":2856,"max":[1.78125,2.908470869064331,1.2881689071655273],"min":[-1.78125,0,-1.234375],"type":"VEC3"},{"bufferView":1,"componentType":5126,"count":2856,"max":[1,1,1],"min":[-1,-1,-1],"type":"VEC3"},{"bufferView":2,"componentType":5126,"count":2856,"max":[0.9842529296875,0.9373779296875],"min":[0.0001220703125,0.0001220703125],"type":"VEC2"},{"bufferView":3,"componentType":5123,"count":2856,"max":[0,40,0,0],"min":[0,1,0,0],"type":"VEC4"},{"bufferView":4,"componentType":5126,"count":2856,"max":[0,1,0,0],"min":[0,1,0,0],"type":"VEC4"},{"bufferView":5,"componentType":5123,"count":4284,"max":[2855],"min":[0],"type":"SCALAR"},{"bufferView":6,"componentType":5126,"count":41,"max":[1,0,0,0,0,1,0,0,0,0,1,0,1.625,0,0.859375,1],"min":[1,0,0,0,0,1,0,0,0,0,1,0,-1.625,-2.515625,-0.9375,1],"type":"MAT4"}],"materials":[{"pbrMetallicRoughness":{"metallicFactor":0,"roughnessFactor":1,"baseColorTexture":{"index":0}},"alphaMode":"MASK","alphaCutoff":0.05,"doubleSided":true}],"textures":[{"sampler":0,"source":0,"name":"godzira.png"}],"samplers":[{"magFilter":9728,"minFilter":9728,"wrapS":33071,"wrapT":33071}],"images":[{"mimeType":"image/png","uri":"data:image/png;base64,"}],"meshes":[{"primitives":[{"mode":4,"attributes":{"POSITION":0,"NORMAL":1,"TEXCOORD_0":2,"JOINTS_0":3,"WEIGHTS_0":4},"indices":5,"material":0}]}],"skins":[{"inverseBindMatrices":6,"joints":[40,2,1,0,5,4,3,39,35,34,8,6,7,20,19,18,9,11,10,13,12,15,14,17,16,33,31,30,21,23,22,25,24,27,26,29,28,32,38,37,36],"skeleton":40}]}